<svg xmlns="http://www.w3.org/2000/svg" xmlns:xlink="http://www.w3.org/1999/xlink" width="1200" viewBox="0 0 900 899.99999" height="1200" preserveAspectRatio="xMidYMid meet"><defs><clipPath id="5af87b2e47"><path d="M 3 98 L 898 98 L 898 899.800781 L 3 899.800781 Z M 3 98 " clip-rule="nonzero"></path></clipPath><clipPath id="3448db59fc"><path d="M 11 632 L 761 632 L 761 899.800781 L 11 899.800781 Z M 11 632 " clip-rule="nonzero"></path></clipPath><clipPath id="e5b24f13e3"><path d="M 672 781 L 690 781 L 690 899.800781 L 672 899.800781 Z M 672 781 " clip-rule="nonzero"></path></clipPath><clipPath id="556466aa06"><path d="M 82 781 L 100 781 L 100 899.800781 L 82 899.800781 Z M 82 781 " clip-rule="nonzero"></path></clipPath></defs><g clip-path="url(#5af87b2e47)"><path fill="#000000" d="M 767.496094 899.675781 C 764.878906 899.675781 762.265625 899.675781 759.648438 899.675781 C 761.296875 859.519531 760.847656 819.378906 758.300781 779.257812 C 756.222656 744.894531 744.855469 714.070312 724.210938 686.800781 C 712.648438 673.109375 699.6875 660.96875 685.335938 650.378906 C 675.480469 643.546875 665.058594 637.621094 654.066406 632.601562 C 643.867188 647.382812 631.480469 660.09375 616.914062 670.738281 C 585.132812 691.421875 550.714844 706.214844 513.660156 715.125 C 484.652344 721.910156 455.308594 726.488281 425.617188 728.859375 C 356.296875 734.242188 287.707031 729.417969 219.851562 714.390625 C 197.640625 709.101562 175.8125 702.566406 154.371094 694.769531 C 137.507812 688.304688 121.648438 680.046875 106.792969 670 C 93.808594 660.535156 83.550781 648.71875 76.011719 634.5625 C 64.421875 642.882812 53.546875 652.117188 43.394531 662.273438 C 31.191406 676.875 23.015625 693.550781 18.871094 712.304688 C 17.058594 720.320312 15.75 728.410156 14.945312 736.585938 C 13.175781 763.859375 12.195312 791.167969 12.003906 818.5 C 11.804688 845.5625 11.925781 872.621094 12.371094 899.675781 C 9.671875 899.675781 6.976562 899.675781 4.277344 899.675781 C 3.421875 856.421875 3.710938 813.175781 5.136719 769.941406 C 5.523438 758.234375 6.179688 746.542969 7.097656 734.871094 C 8.703125 717.269531 12.957031 700.34375 19.851562 684.101562 C 24.945312 673.492188 31.324219 663.765625 38.980469 654.917969 C 49.238281 644.996094 60.152344 635.921875 71.722656 627.695312 C 65.035156 623.589844 58.945312 618.683594 53.449219 612.980469 C 42.101562 599.316406 35.15625 583.621094 32.605469 565.890625 C 30.527344 553.625 29.875 541.28125 30.640625 528.859375 C 31.246094 514.648438 33.046875 500.585938 36.039062 486.675781 C 39.332031 472.820312 42.4375 458.921875 45.355469 444.984375 C 46.691406 434.070312 48.53125 423.320312 50.875 412.734375 C 53.140625 402.5 56.121094 392.40625 59.828125 382.445312 C 70.464844 354.585938 85.261719 329.242188 104.21875 306.417969 C 114.503906 295.152344 125.578125 284.726562 137.449219 275.148438 C 140.597656 272.328125 143.742188 269.507812 146.890625 266.6875 C 151.382812 260.976562 155.632812 255.089844 159.644531 249.027344 C 162.644531 244.035156 164.933594 238.722656 166.511719 233.085938 C 168.058594 225.429688 169.449219 217.746094 170.679688 210.035156 C 172.230469 203.253906 174.273438 196.632812 176.8125 190.167969 C 181.59375 176.589844 188.460938 164.246094 197.414062 153.136719 C 205.054688 143.859375 213.515625 135.398438 222.796875 127.753906 C 227.988281 123.640625 233.628906 120.207031 239.71875 117.453125 C 288.140625 96.574219 337.925781 92.566406 389.074219 105.433594 C 406.425781 110.070312 422.53125 117.34375 437.390625 127.261719 C 446.765625 134.265625 455.472656 142.074219 463.507812 150.683594 C 481.621094 138.054688 501.445312 129.019531 522.980469 123.582031 C 542.339844 118.421875 562.042969 116.007812 582.085938 116.347656 C 620.050781 116.621094 657.574219 120.832031 694.65625 128.980469 C 711.855469 132.285156 728.042969 138.253906 743.214844 146.882812 C 753.269531 153.503906 760.667969 162.375 765.410156 173.492188 C 767.214844 177.6875 768.605469 182.019531 769.582031 186.492188 C 771.734375 196.683594 773.082031 206.984375 773.628906 217.390625 C 789.371094 215.558594 804.25 218.300781 818.261719 225.609375 C 830.460938 233.066406 840.394531 242.835938 848.058594 254.914062 C 852.082031 262.128906 856.007812 269.40625 859.832031 276.742188 C 863.511719 282.304688 867.480469 287.660156 871.726562 292.804688 C 880.660156 295.605469 886.339844 301.53125 888.773438 310.585938 C 889.65625 317.992188 887.082031 323.839844 881.046875 328.121094 C 897.140625 343.574219 901.101562 361.761719 892.941406 382.691406 C 890.359375 389.210938 886.636719 394.972656 881.78125 399.980469 C 885.847656 404.417969 887.277344 409.605469 886.074219 415.554688 C 883.542969 422.171875 879.007812 426.875 872.460938 429.65625 C 870.039062 430.664062 867.585938 431.601562 865.105469 432.476562 C 864.464844 437.476562 862.09375 441.441406 857.992188 444.371094 C 853.316406 447.238281 848.332031 449.449219 843.03125 450.992188 C 844.433594 456.859375 843.535156 462.335938 840.335938 467.425781 C 851.609375 467.785156 857.332031 473.628906 857.503906 484.960938 C 857.535156 492.488281 855.042969 499.03125 850.023438 504.578125 C 844.21875 510.449219 837.390625 514.742188 829.542969 517.457031 C 821.742188 520.035156 813.730469 521.507812 805.507812 521.871094 C 801.996094 521.992188 798.480469 522.035156 794.964844 521.992188 C 795.328125 531.121094 791.648438 538.109375 783.925781 542.960938 C 775.609375 547.394531 766.78125 548.867188 757.441406 547.375 C 753.183594 546.796875 748.972656 546.019531 744.808594 545.046875 C 742.195312 548.480469 739.578125 551.914062 736.960938 555.347656 C 730.738281 565.734375 724.035156 575.789062 716.851562 585.511719 C 701.71875 604.261719 682.878906 617.957031 660.320312 626.589844 C 676.914062 634.347656 692.039062 644.238281 705.691406 656.265625 C 714.496094 663.925781 722.632812 672.226562 730.09375 681.160156 C 751.972656 709.828125 763.988281 742.28125 766.148438 778.523438 C 768.699219 818.902344 769.144531 859.285156 767.496094 899.675781 Z M 767.496094 899.675781 " fill-opacity="0.993" fill-rule="evenodd"></path></g><path fill="#7c5d00" d="M 429.542969 132.535156 C 425.523438 138.730469 420.539062 144.003906 414.582031 148.355469 C 401.984375 156.820312 388.25 162.625 373.378906 165.765625 C 351.695312 170.125 329.949219 170.453125 308.144531 166.746094 C 292.539062 163.871094 278.070312 158.472656 264.734375 150.5625 C 258.886719 146.585938 253.613281 142.050781 248.914062 136.949219 C 247.6875 135.316406 246.460938 133.679688 245.234375 132.042969 C 244.0625 130.273438 243.082031 128.390625 242.292969 126.402344 C 242.128906 126.21875 241.925781 126.136719 241.679688 126.160156 C 288.605469 105.320312 337 101.191406 386.867188 113.773438 C 401.816406 117.828125 415.878906 123.878906 429.050781 131.921875 C 429.265625 132.097656 429.429688 132.300781 429.542969 132.535156 Z M 429.542969 132.535156 " fill-opacity="1" fill-rule="evenodd"></path><path fill="#7c5d00" d="M 706.183594 140.628906 C 706.066406 141.667969 705.78125 142.648438 705.324219 143.570312 C 702.308594 149.617188 698.261719 154.886719 693.183594 159.390625 C 686.199219 165.375 678.4375 170.199219 669.886719 173.859375 C 654.390625 180.167969 638.203125 183.765625 621.328125 184.652344 C 598.203125 186.078125 575.882812 182.644531 554.375 174.351562 C 552.863281 173.574219 551.308594 172.917969 549.714844 172.386719 C 546.859375 170.953125 543.996094 169.480469 541.128906 167.972656 C 537.542969 165.851562 534.109375 163.480469 530.828125 160.863281 C 525.28125 156.332031 520.621094 150.976562 516.851562 144.796875 C 515.441406 141.785156 514.132812 138.761719 512.925781 135.722656 C 537.558594 127.398438 562.902344 123.84375 588.953125 125.054688 C 628.617188 125.886719 667.691406 131.078125 706.183594 140.628906 Z M 706.183594 140.628906 " fill-opacity="1" fill-rule="evenodd"></path><path fill="#838637" d="M 241.679688 126.160156 C 241.925781 126.136719 242.128906 126.21875 242.292969 126.402344 C 243.082031 128.390625 244.0625 130.273438 245.234375 132.042969 C 246.460938 133.679688 247.6875 135.316406 248.914062 136.949219 C 253.613281 142.050781 258.886719 146.585938 264.734375 150.5625 C 278.070312 158.472656 292.539062 163.871094 308.144531 166.746094 C 329.949219 170.453125 351.695312 170.125 373.378906 165.765625 C 388.25 162.625 401.984375 156.820312 414.582031 148.355469 C 420.539062 144.003906 425.523438 138.730469 429.542969 132.535156 C 433.792969 135.351562 437.878906 138.417969 441.804688 141.730469 C 455.429688 153.882812 467.652344 167.25 478.46875 181.832031 C 486.902344 192.890625 494.671875 204.417969 501.765625 216.410156 C 505.523438 223.554688 508.589844 230.992188 510.964844 238.730469 C 510.675781 238.808594 510.394531 238.894531 510.105469 238.972656 C 488.664062 235.707031 467.203125 232.558594 445.726562 229.53125 C 415.117188 225.375 384.378906 222.675781 353.515625 221.4375 C 331.765625 220.546875 310.265625 222.429688 289.011719 227.078125 C 279.167969 229.761719 269.519531 233.03125 260.074219 236.890625 C 254.242188 239.191406 248.4375 241.5625 242.660156 244 C 240.398438 245.523438 239.871094 247.527344 241.066406 250.011719 C 242.292969 251.609375 243.886719 252.140625 245.847656 251.605469 C 256.964844 247.066406 268.167969 242.734375 279.449219 238.605469 C 293.246094 234.140625 307.390625 231.441406 321.875 230.511719 C 337.816406 229.421875 353.757812 229.421875 369.699219 230.511719 C 395.628906 232.117188 421.460938 234.652344 447.199219 238.117188 C 469.738281 241.445312 492.257812 244.753906 514.765625 248.046875 C 517.585938 253.363281 520.773438 258.433594 524.332031 263.253906 C 533.226562 275.175781 542.222656 287.03125 551.308594 298.816406 C 553.730469 302.390625 556.058594 306.027344 558.296875 309.726562 C 546.820312 304.019531 534.96875 299.113281 522.738281 295.011719 C 477.539062 279.84375 431.105469 272.8125 383.433594 273.921875 C 373.78125 274.066406 364.214844 275.046875 354.738281 276.863281 C 343.402344 278.964844 332.28125 281.90625 321.386719 285.695312 C 311.3125 289.242188 301.257812 292.839844 291.21875 296.484375 C 282.226562 299.320312 273.070312 301.445312 263.753906 302.863281 C 253.222656 303.957031 242.675781 304.859375 232.113281 305.558594 C 229.996094 306.085938 228.933594 307.433594 228.925781 309.605469 C 228.898438 311.46875 229.714844 312.816406 231.378906 313.652344 C 242.894531 319.410156 254.179688 325.542969 265.222656 332.046875 C 272.960938 337.589844 280.5625 343.3125 288.03125 349.214844 C 295.539062 354.511719 302.980469 359.910156 310.351562 365.398438 C 322.21875 373.710938 334.8125 380.90625 348.117188 386.980469 C 368.347656 396.503906 389.113281 404.679688 410.410156 411.507812 C 426.019531 415.09375 441.839844 416.773438 457.867188 416.535156 C 480.988281 416.796875 503.671875 413.8125 525.925781 407.582031 C 533.355469 405.394531 540.386719 402.328125 547.015625 398.386719 C 549.023438 400.027344 551.066406 401.621094 553.148438 403.167969 C 549.144531 407.988281 544.8125 412.484375 540.148438 416.65625 C 532.820312 421.957031 524.8125 425.960938 516.113281 428.675781 C 494.855469 435.214844 473.109375 438.976562 450.878906 439.957031 C 431.664062 441.070312 412.453125 441.070312 393.246094 439.957031 C 368.621094 438.328125 344.058594 436.078125 319.546875 433.210938 C 316.523438 433.617188 315.132812 435.335938 315.378906 438.363281 C 315.933594 439.980469 317.035156 441 318.6875 441.425781 C 348.03125 444.980469 377.460938 447.515625 406.976562 449.03125 C 425.640625 449.351562 444.277344 448.859375 462.894531 447.558594 C 481.746094 445.863281 500.21875 442.265625 518.320312 436.769531 C 527.660156 433.816406 536.324219 429.566406 544.316406 424.015625 C 546.023438 422.71875 547.660156 421.328125 549.222656 419.84375 C 552.96875 416.019531 556.605469 412.136719 560.136719 408.195312 C 572.230469 416.222656 585.269531 422.316406 599.253906 426.46875 C 604.449219 428.050781 609.679688 429.480469 614.949219 430.757812 C 616.050781 431.425781 617.273438 431.75 618.628906 431.742188 C 643.484375 438.121094 668.742188 441.679688 694.410156 442.410156 C 731.035156 443.773438 767.417969 441.402344 803.546875 435.296875 C 825.773438 431.046875 846.699219 423.363281 866.332031 412.242188 C 869.425781 410.226562 872.410156 408.0625 875.28125 405.742188 C 877.964844 408.457031 878.535156 411.5625 877 415.0625 C 875.460938 417.746094 873.292969 419.75 870.5 421.070312 C 866.53125 422.722656 862.527344 424.273438 858.484375 425.730469 C 857.683594 426.367188 857.070312 427.144531 856.644531 428.0625 C 857.246094 432.226562 855.816406 435.457031 852.351562 437.75 C 847.195312 440.449219 841.800781 442.574219 836.164062 444.125 C 812.363281 451.007812 788.085938 455.011719 763.328125 456.144531 C 754.171875 456.648438 745.015625 456.972656 735.859375 457.125 C 732.644531 454.167969 729.289062 451.390625 725.804688 448.785156 C 723.644531 447.996094 721.925781 448.527344 720.652344 450.378906 C 720.40625 450.378906 720.164062 450.378906 719.917969 450.378906 C 719.667969 451.601562 719.707031 452.828125 720.039062 454.058594 C 720.132812 454.410156 720.335938 454.65625 720.652344 454.792969 C 723.632812 457.648438 726.738281 460.386719 729.972656 463.007812 C 733.167969 466.289062 736.277344 469.640625 739.292969 473.066406 C 742.285156 474.738281 744.535156 474.042969 746.035156 470.980469 C 746.246094 468.734375 745.46875 466.898438 743.707031 465.460938 C 760.933594 464.933594 778.101562 463.628906 795.210938 461.539062 C 808.410156 459.550781 821.445312 456.816406 834.328125 453.324219 C 834.515625 453.355469 834.679688 453.441406 834.816406 453.566406 C 835.511719 458.917969 833.839844 463.371094 829.789062 466.933594 C 825.640625 470.523438 820.980469 473.304688 815.808594 475.273438 C 805.878906 478.773438 795.664062 480.078125 785.152344 479.195312 C 769.199219 477.6875 753.257812 476.050781 737.328125 474.292969 C 704.8125 471.46875 672.273438 471.222656 639.71875 473.554688 C 630.140625 474.742188 620.65625 476.460938 611.273438 478.707031 C 596.558594 482.464844 581.84375 486.226562 567.125 489.988281 C 553.023438 492.914062 538.800781 495.039062 524.453125 496.363281 C 501.703125 498.707031 478.894531 499.601562 456.027344 499.0625 C 438.007812 498.183594 420.105469 496.222656 402.320312 493.175781 C 391.054688 491.628906 379.773438 491.464844 368.472656 492.683594 C 348.199219 495.710938 335.40625 507.117188 330.09375 526.898438 C 328.847656 531.984375 328.398438 537.132812 328.742188 542.347656 C 328.542969 541.824219 328.421875 541.253906 328.375 540.632812 C 311.359375 572.625 290.429688 601.8125 265.589844 628.1875 C 251.65625 642.652344 235.429688 653.769531 216.910156 661.539062 C 184.175781 656.566406 152.046875 649.003906 120.527344 638.855469 C 109.179688 635.179688 98.058594 630.929688 87.171875 626.101562 C 80.636719 622.917969 74.421875 619.238281 68.535156 615.066406 C 66.613281 613.59375 64.816406 612 63.136719 610.28125 C 69.128906 608.449219 73.996094 605.015625 77.730469 599.980469 C 83.054688 592.175781 86.488281 583.589844 88.03125 574.230469 C 91.964844 550.832031 88.449219 528.679688 77.484375 507.769531 C 73.152344 499.757812 67.226562 493.257812 59.703125 488.269531 C 55.320312 485.703125 50.578125 484.433594 45.480469 484.46875 C 46.519531 479.425781 47.789062 474.4375 49.28125 469.507812 C 49.835938 466.042969 50.53125 462.609375 51.367188 459.207031 C 51.605469 459.324219 51.808594 459.488281 51.980469 459.699219 C 57.6875 474.429688 68.273438 480.027344 83.738281 476.5 C 89.660156 474.632812 95.300781 472.097656 100.660156 468.894531 C 108.648438 463.367188 116.046875 457.113281 122.855469 450.132812 C 126.21875 446.527344 129.488281 442.851562 132.667969 439.097656 C 156.039062 409.816406 172.472656 376.953125 181.960938 340.507812 C 183.101562 334.730469 184.082031 328.925781 184.90625 323.09375 C 185.082031 320.054688 185.285156 317.03125 185.519531 314.019531 C 185.8125 310.417969 185.730469 306.820312 185.273438 303.230469 C 184.773438 296.167969 182.726562 289.542969 179.140625 283.363281 C 174.050781 275.875 166.941406 272.195312 157.804688 272.328125 C 155.78125 272.296875 153.820312 272.503906 151.917969 272.941406 C 159.875 264.921875 166.292969 255.808594 171.171875 245.59375 C 172.542969 241.882812 173.769531 238.121094 174.847656 234.3125 C 176.34375 226.976562 177.734375 219.617188 179.019531 212.242188 C 182.640625 197.070312 188.363281 182.761719 196.1875 169.324219 C 205.957031 154.972656 217.769531 142.507812 231.625 131.921875 C 234.828125 129.746094 238.183594 127.824219 241.679688 126.160156 Z M 241.679688 126.160156 " fill-opacity="1" fill-rule="evenodd"></path><path fill="#838637" d="M 512.925781 135.722656 C 514.132812 138.761719 515.441406 141.785156 516.851562 144.796875 C 520.621094 150.976562 525.28125 156.332031 530.828125 160.863281 C 534.109375 163.480469 537.542969 165.851562 541.128906 167.972656 C 543.996094 169.480469 546.859375 170.953125 549.714844 172.386719 C 551.308594 172.917969 552.863281 173.574219 554.375 174.351562 C 575.882812 182.644531 598.203125 186.078125 621.328125 184.652344 C 638.203125 183.765625 654.390625 180.167969 669.886719 173.859375 C 678.4375 170.199219 686.199219 165.375 693.183594 159.390625 C 698.261719 154.886719 702.308594 149.617188 705.324219 143.570312 C 705.78125 142.648438 706.066406 141.667969 706.183594 140.628906 C 716.339844 143.429688 726.066406 147.3125 735.367188 152.277344 C 744.261719 157.085938 751.007812 163.996094 755.601562 173 C 758.574219 178.734375 760.617188 184.78125 761.734375 191.148438 C 763.5625 200.21875 764.664062 209.378906 765.042969 218.617188 C 738.566406 221.824219 711.996094 223.910156 685.335938 224.871094 C 648.960938 224.621094 612.664062 226.171875 576.445312 229.53125 C 570.960938 230.105469 565.480469 230.757812 560.015625 231.492188 C 548.714844 233.84375 537.433594 236.296875 526.167969 238.851562 C 524.144531 239.234375 522.097656 239.441406 520.039062 239.464844 C 517.847656 232.765625 515.433594 226.144531 512.804688 219.597656 C 508.371094 210.8125 503.386719 202.394531 497.84375 194.339844 C 489.023438 181.46875 479.5 169.125 469.273438 157.304688 C 482.613281 147.773438 497.164062 140.578125 512.925781 135.722656 Z M 512.925781 135.722656 " fill-opacity="1" fill-rule="evenodd"></path><path fill="#838637" d="M 775.097656 225.730469 C 787.351562 224.625 799.125 226.464844 810.414062 231.25 C 818.160156 235.394531 825.066406 240.667969 831.136719 247.066406 C 835.765625 252.316406 839.855469 257.957031 843.402344 263.988281 C 846.382812 269.953125 849.488281 275.839844 852.71875 281.648438 C 854.570312 284.574219 856.574219 287.394531 858.730469 290.109375 C 819.3125 284.96875 779.828125 284.476562 740.273438 288.636719 C 721.023438 290.996094 702.382812 295.738281 684.355469 302.863281 C 664.195312 312.328125 643.507812 320.503906 622.308594 327.386719 C 607.691406 331.414062 592.894531 334.644531 577.917969 337.074219 C 576.371094 328.148438 573.390625 319.730469 568.964844 311.8125 C 565.410156 305.191406 561.484375 298.816406 557.195312 292.683594 C 548.109375 280.898438 539.113281 269.046875 530.214844 257.121094 C 528.066406 254.117188 526.066406 251.007812 524.207031 247.804688 C 535.503906 245.386719 546.785156 242.894531 558.050781 240.324219 C 573.4375 238.136719 588.886719 236.582031 604.40625 235.664062 C 611.671875 235.136719 618.949219 234.730469 626.230469 234.4375 C 645.929688 233.957031 665.632812 233.550781 685.335938 233.210938 C 715.410156 232.09375 745.332031 229.601562 775.097656 225.730469 Z M 775.097656 225.730469 " fill-opacity="1" fill-rule="evenodd"></path><path fill="#838637" d="M 156.824219 280.175781 C 165.144531 279.796875 170.988281 283.390625 174.359375 290.96875 C 176.683594 297.136719 177.785156 303.515625 177.667969 310.097656 C 177.644531 313.53125 177.519531 316.964844 177.300781 320.398438 C 176.855469 324.082031 176.363281 327.757812 175.832031 331.433594 C 172.097656 349.191406 166.375 366.277344 158.664062 382.691406 C 148.292969 404.617188 135.09375 424.644531 119.054688 442.777344 C 116.765625 445.078125 114.476562 447.363281 112.1875 449.644531 C 104.304688 457.242188 95.390625 463.332031 85.457031 467.914062 C 72.058594 472.863281 63.109375 468.652344 58.601562 455.285156 C 56.804688 447.976562 56.152344 440.539062 56.640625 432.964844 C 58.304688 416.058594 62.230469 399.710938 68.410156 383.917969 C 79.578125 355.101562 95.355469 329.1875 115.742188 306.171875 C 122.660156 299.007812 130.222656 292.671875 138.429688 287.164062 C 142.726562 284.648438 147.222656 282.605469 151.917969 281.035156 C 153.574219 280.667969 155.210938 280.382812 156.824219 280.175781 Z M 156.824219 280.175781 " fill-opacity="1" fill-rule="evenodd"></path><path fill="#be9612" d="M 359.398438 284.101562 C 359.90625 284.144531 360.394531 284.269531 360.871094 284.46875 C 349.519531 291.074219 339.832031 299.617188 331.808594 310.097656 C 326.652344 316.980469 323.21875 324.664062 321.507812 333.148438 C 319.542969 342.363281 318.601562 351.679688 318.6875 361.109375 C 316.417969 359.699219 314.253906 358.144531 312.1875 356.449219 C 310.769531 338.089844 315.101562 321.246094 325.1875 305.925781 C 330.785156 299.347656 336.878906 293.253906 343.457031 287.65625 C 348.757812 286.328125 354.066406 285.140625 359.398438 284.101562 Z M 359.398438 284.101562 " fill-opacity="1" fill-rule="evenodd"></path><path fill="#be9712" d="M 446.464844 285.324219 C 450.390625 285.90625 454.3125 286.519531 458.234375 287.164062 C 463.738281 294.285156 468.847656 301.683594 473.5625 309.359375 C 481.378906 324.59375 483.585938 340.617188 480.183594 357.429688 C 476.632812 371.9375 469.398438 384.238281 458.480469 394.339844 C 453.175781 399.035156 447.78125 403.613281 442.292969 408.074219 C 439.019531 407.992188 435.75 407.746094 432.484375 407.339844 C 432.113281 407.132812 431.992188 406.847656 432.117188 406.480469 C 437.871094 401.953125 443.550781 397.335938 449.160156 392.621094 C 454.386719 387.5625 459.25 382.207031 463.753906 376.558594 C 472.441406 363.453125 475.382812 349.148438 472.582031 333.640625 C 470.605469 322.464844 466.519531 312.167969 460.320312 302.738281 C 455.859375 296.804688 451.078125 291.125 445.972656 285.695312 C 446.199219 285.625 446.359375 285.503906 446.464844 285.324219 Z M 446.464844 285.324219 " fill-opacity="1" fill-rule="evenodd"></path><path fill="#fefefe" d="M 470.742188 289.742188 C 494.859375 294.644531 518.324219 301.71875 541.128906 310.953125 C 547.757812 313.738281 554.054688 317.089844 560.015625 321.011719 C 565.570312 325.625 568.800781 331.550781 569.703125 338.789062 C 570.90625 347.21875 569.761719 355.3125 566.269531 363.070312 C 559.589844 378.660156 548.429688 389.738281 532.792969 396.300781 C 514.628906 403.238281 495.828125 407.160156 476.382812 408.074219 C 469.351562 408.523438 462.320312 408.523438 455.292969 408.074219 C 460.933594 403.660156 466.207031 398.796875 471.109375 393.480469 C 488.390625 372.5 493.867188 348.710938 487.542969 322.113281 C 485.832031 316.160156 483.542969 310.4375 480.675781 304.945312 C 477.542969 299.738281 474.234375 294.671875 470.742188 289.742188 Z M 470.742188 289.742188 " fill-opacity="1" fill-rule="evenodd"></path><path fill="#fdfdfd" d="M 324.328125 293.417969 C 324.542969 293.386719 324.707031 293.46875 324.820312 293.664062 C 319.074219 299.375 314.621094 306 311.453125 313.53125 C 307.972656 321.03125 305.683594 328.878906 304.585938 337.074219 C 304.1875 341.402344 303.863281 345.734375 303.605469 350.070312 C 299.621094 347.078125 295.574219 344.179688 291.464844 341.367188 C 285.488281 336.613281 279.4375 331.953125 273.316406 327.386719 C 270.292969 325.300781 267.1875 323.339844 263.996094 321.5 C 258.71875 318.65625 253.484375 315.753906 248.300781 312.792969 C 265.539062 311.890625 282.296875 308.578125 298.578125 302.863281 C 307.128906 299.5625 315.714844 296.417969 324.328125 293.417969 Z M 324.328125 293.417969 " fill-opacity="1" fill-rule="evenodd"></path><path fill="#838637" d="M 780.738281 294.15625 C 798.5 293.945312 816.242188 294.480469 833.957031 295.75 C 845.363281 296.542969 856.648438 298.175781 867.804688 300.652344 C 874.128906 302.074219 878.257812 305.875 880.1875 312.058594 C 880.714844 315.382812 879.691406 318.125 877.121094 320.273438 C 875.9375 321.152344 874.710938 321.96875 873.445312 322.726562 C 873.117188 322.890625 872.789062 322.890625 872.460938 322.726562 C 868.144531 320.714844 863.652344 319.246094 858.972656 318.3125 C 851.6875 316.808594 844.332031 315.828125 836.902344 315.371094 C 792.058594 312.042969 747.75 315.476562 703.976562 325.667969 C 687.59375 330.367188 671.160156 334.863281 654.679688 339.160156 C 637.257812 343.285156 619.601562 345.082031 601.707031 344.554688 C 598.886719 344.226562 596.105469 343.695312 593.367188 342.960938 C 602.050781 341.066406 610.71875 339.066406 619.363281 336.953125 C 633.9375 332.609375 648.246094 327.542969 662.285156 321.746094 C 672.199219 317.277344 682.171875 312.945312 692.203125 308.746094 C 712.992188 301.320312 734.414062 296.90625 756.460938 295.503906 C 764.585938 294.964844 772.679688 294.511719 780.738281 294.15625 Z M 780.738281 294.15625 " fill-opacity="1" fill-rule="evenodd"></path><path fill="#010100" d="M 146.769531 305.925781 C 152.742188 305.726562 156.132812 308.589844 156.945312 314.511719 C 157.25 318.796875 157.007812 323.046875 156.210938 327.265625 C 154.542969 334.425781 152.5 341.453125 150.078125 348.355469 C 140.59375 372.808594 128.496094 395.78125 113.78125 417.269531 C 108.664062 424.601562 102.898438 431.425781 96.492188 437.75 C 94.628906 439.449219 92.625 440.960938 90.484375 442.285156 C 88.183594 443.609375 85.734375 444.429688 83.125 444.738281 C 80.5 444.648438 78.371094 443.589844 76.75 441.550781 C 75.152344 438.714844 74.457031 435.648438 74.664062 432.351562 C 74.773438 429.851562 74.980469 427.359375 75.277344 424.875 C 78.554688 410.09375 83.542969 395.949219 90.238281 382.445312 C 91.039062 380.492188 91.855469 378.53125 92.691406 376.558594 C 95.867188 370.535156 99.054688 364.484375 102.253906 358.410156 C 109.496094 345.652344 117.671875 333.472656 126.78125 321.867188 C 131.058594 316.78125 135.839844 312.242188 141.128906 308.257812 C 143.042969 307.4375 144.921875 306.660156 146.769531 305.925781 Z M 146.769531 305.925781 " fill-opacity="1" fill-rule="evenodd"></path><path fill="#fdfdfd" d="M 359.890625 310.097656 C 364.03125 309.878906 367.585938 311.191406 370.558594 314.019531 C 372.394531 316.503906 373.050781 319.28125 372.519531 322.359375 C 371.808594 327.160156 369.070312 330.0625 364.304688 331.066406 C 360.015625 331.898438 356.460938 330.628906 353.636719 327.265625 C 351.039062 323.679688 350.628906 319.835938 352.410156 315.738281 C 354.222656 312.933594 356.714844 311.054688 359.890625 310.097656 Z M 359.890625 310.097656 " fill-opacity="1" fill-rule="evenodd"></path><path fill="#4f5121" d="M 185.273438 303.230469 C 185.730469 306.820312 185.8125 310.417969 185.519531 314.019531 C 185.449219 310.421875 185.367188 306.828125 185.273438 303.230469 Z M 185.273438 303.230469 " fill-opacity="1" fill-rule="evenodd"></path><path fill="#42431b" d="M 147.503906 314.019531 C 148.128906 313.921875 148.660156 314.085938 149.097656 314.511719 C 149.394531 320.964844 148.574219 327.261719 146.644531 333.394531 C 142.964844 345.351562 138.46875 356.957031 133.15625 368.21875 C 125.453125 383.90625 116.707031 398.949219 106.914062 413.347656 C 103.085938 418.46875 99.082031 423.453125 94.898438 428.308594 C 92.378906 430.824219 89.722656 433.15625 86.925781 435.296875 C 85.800781 436.070312 84.574219 436.476562 83.25 436.523438 C 82.632812 435.441406 82.386719 434.253906 82.511719 432.964844 C 82.953125 426.535156 84.140625 420.242188 86.070312 414.082031 C 89.398438 403.871094 93.320312 393.898438 97.839844 384.160156 C 106.519531 365.816406 116.820312 348.484375 128.742188 332.167969 C 132.507812 327.257812 136.636719 322.636719 141.128906 318.3125 C 143.101562 316.621094 145.226562 315.1875 147.503906 314.019531 Z M 147.503906 314.019531 " fill-opacity="1" fill-rule="evenodd"></path><path fill="#060608" d="M 761.363281 324.566406 C 766.300781 330.675781 770.757812 337.136719 774.730469 343.941406 C 783.023438 359.535156 786.457031 376.128906 785.03125 393.726562 C 783.8125 404.496094 780.214844 414.390625 774.238281 423.402344 C 772.210938 426.230469 770.128906 429.011719 767.984375 431.742188 C 765.734375 434.308594 763.445312 436.886719 761.121094 439.464844 C 758.179688 441.074219 756.015625 440.378906 754.621094 437.382812 C 754.332031 436.046875 754.578125 434.820312 755.355469 433.703125 C 756.082031 433.222656 756.738281 432.648438 757.316406 431.984375 C 757.488281 431.753906 757.449219 431.59375 757.195312 431.496094 C 761.152344 426.855469 764.871094 422.035156 768.355469 417.023438 C 776.261719 403.800781 778.878906 389.574219 776.203125 374.351562 C 774.261719 362.476562 770.007812 351.523438 763.449219 341.488281 C 759.625 335.988281 755.578125 330.675781 751.308594 325.546875 C 749.574219 323.742188 749.207031 321.699219 750.207031 319.414062 C 751.828125 317.582031 753.75 317.214844 755.96875 318.3125 C 757.917969 320.300781 759.714844 322.386719 761.363281 324.566406 Z M 761.363281 324.566406 " fill-opacity="1" fill-rule="evenodd"></path><path fill="#060607" d="M 742.726562 326.773438 C 748.949219 334.714844 754.628906 343.054688 759.769531 351.789062 C 767.972656 366.570312 770.511719 382.265625 767.375 398.875 C 765.699219 405.65625 762.839844 411.867188 758.789062 417.515625 C 754.65625 423.644531 749.871094 429.039062 744.441406 433.703125 C 738.382812 437.328125 731.84375 440.148438 724.824219 442.164062 C 721.585938 442.835938 719.707031 441.574219 719.179688 438.363281 C 719.203125 436.96875 719.777344 435.867188 720.898438 435.050781 C 726.363281 433.394531 731.675781 431.351562 736.839844 428.921875 C 742.183594 425.457031 746.640625 421.082031 750.207031 415.800781 C 753.316406 411.613281 755.933594 407.121094 758.054688 402.308594 C 761.28125 392.542969 761.6875 382.652344 759.28125 372.636719 C 757.859375 366.402344 755.570312 360.515625 752.414062 354.976562 C 746.695312 345.089844 740.070312 335.851562 732.546875 327.265625 C 732.035156 324.109375 733.34375 322.390625 736.472656 322.113281 C 737.320312 322.058594 738.097656 322.261719 738.800781 322.726562 C 740.175781 324.0625 741.488281 325.410156 742.726562 326.773438 Z M 742.726562 326.773438 " fill-opacity="1" fill-rule="evenodd"></path><path fill="#fefefe" d="M 767.984375 431.742188 C 770.128906 429.011719 772.210938 426.230469 774.238281 423.402344 C 780.214844 414.390625 783.8125 404.496094 785.03125 393.726562 C 786.457031 376.128906 783.023438 359.535156 774.730469 343.941406 C 770.757812 337.136719 766.300781 330.675781 761.363281 324.566406 C 788.410156 322.09375 815.472656 321.972656 842.542969 324.199219 C 850.675781 324.859375 858.609375 326.496094 866.332031 329.101562 C 872.296875 331.613281 877.160156 335.496094 880.925781 340.753906 C 884.636719 345.730469 887.007812 351.289062 888.035156 357.429688 C 889.167969 373.582031 883.730469 387.03125 871.726562 397.773438 C 865.617188 402.976562 858.914062 407.308594 851.617188 410.769531 C 836.929688 417.929688 821.5625 423.078125 805.507812 426.222656 C 793.097656 428.734375 780.589844 430.574219 767.984375 431.742188 Z M 767.984375 431.742188 " fill-opacity="1" fill-rule="evenodd"></path><path fill="#be9712" d="M 751.308594 325.546875 C 755.578125 330.675781 759.625 335.988281 763.449219 341.488281 C 770.007812 351.523438 774.261719 362.476562 776.203125 374.351562 C 778.878906 389.574219 776.261719 403.800781 768.355469 417.023438 C 764.871094 422.035156 761.152344 426.855469 757.195312 431.496094 C 756.84375 431.972656 756.433594 432.417969 755.96875 432.84375 C 752.136719 433.25 748.292969 433.539062 744.441406 433.703125 C 749.871094 429.039062 754.65625 423.644531 758.789062 417.515625 C 762.839844 411.867188 765.699219 405.65625 767.375 398.875 C 770.511719 382.265625 767.972656 366.570312 759.769531 351.789062 C 754.628906 343.054688 748.949219 334.714844 742.726562 326.773438 C 745.535156 326.105469 748.398438 325.695312 751.308594 325.546875 Z M 751.308594 325.546875 " fill-opacity="1" fill-rule="evenodd"></path><path fill="#fefefe" d="M 430.277344 326.773438 C 444.550781 326.617188 451.703125 333.648438 451.738281 347.863281 C 450.09375 354.988281 445.882812 359.929688 439.105469 362.703125 C 431.582031 365.769531 424.222656 365.441406 417.035156 361.722656 C 409.878906 356.691406 407.550781 349.945312 410.042969 341.488281 C 412.347656 335.671875 416.394531 331.542969 422.183594 329.101562 C 424.816406 327.992188 427.515625 327.214844 430.277344 326.773438 Z M 430.277344 326.773438 " fill-opacity="1" fill-rule="evenodd"></path><path fill="#060608" d="M 629.175781 351.542969 C 626.179688 356.878906 623.441406 362.355469 620.957031 367.976562 C 616.082031 382.890625 615.347656 398.011719 618.75 413.347656 C 619.675781 416.914062 620.617188 420.472656 621.570312 424.015625 C 621.953125 424.066406 622.28125 424.1875 622.554688 424.382812 C 622.226562 424.382812 621.898438 424.382812 621.570312 424.382812 C 622.144531 426.085938 622.183594 427.804688 621.695312 429.53125 C 620.980469 430.726562 619.957031 431.460938 618.628906 431.742188 C 617.273438 431.75 616.050781 431.425781 614.949219 430.757812 C 615.132812 430.792969 615.296875 430.75 615.441406 430.636719 C 614.835938 430.046875 614.390625 429.351562 614.09375 428.550781 C 613.46875 426.441406 612.898438 424.3125 612.375 422.175781 C 612.257812 421.777344 612.054688 421.445312 611.761719 421.195312 C 611.910156 421.136719 611.988281 421.011719 612.007812 420.828125 C 607.085938 403.1875 607.125 385.570312 612.128906 367.976562 C 612.726562 365.960938 613.464844 363.996094 614.335938 362.089844 C 615.777344 359.046875 617.207031 356.023438 618.628906 353.015625 C 618.21875 353.015625 617.8125 353.015625 617.402344 353.015625 C 617.988281 352.839844 618.601562 352.675781 619.242188 352.523438 C 620.457031 349.972656 621.886719 347.5625 623.535156 345.289062 C 627.148438 343.292969 629.433594 344.316406 630.402344 348.355469 C 630.230469 349.523438 629.820312 350.585938 629.175781 351.542969 Z M 629.175781 351.542969 " fill-opacity="1" fill-rule="evenodd"></path><path fill="#fdfdfd" d="M 366.023438 345.414062 C 370.46875 345.164062 374.023438 346.796875 376.691406 350.316406 C 379.101562 355.84375 377.914062 360.460938 373.132812 364.175781 C 369.515625 366.214844 365.835938 366.296875 362.097656 364.417969 C 356.855469 360.550781 355.835938 355.765625 359.03125 350.070312 C 360.75 347.574219 363.078125 346.019531 366.023438 345.414062 Z M 366.023438 345.414062 " fill-opacity="1" fill-rule="evenodd"></path><path fill="#fefefe" d="M 617.402344 353.015625 C 617.8125 353.015625 618.21875 353.015625 618.628906 353.015625 C 617.207031 356.023438 615.777344 359.046875 614.335938 362.089844 C 613.464844 363.996094 612.726562 365.960938 612.128906 367.976562 C 607.125 385.570312 607.085938 403.1875 612.007812 420.828125 C 611.988281 421.011719 611.910156 421.136719 611.761719 421.195312 C 590.269531 416.375 571.058594 407.054688 554.128906 393.234375 C 566.527344 382.839844 574.414062 369.675781 577.796875 353.75 C 578.160156 351.804688 578.367188 349.839844 578.40625 347.863281 C 585.089844 349.882812 591.875 351.476562 598.765625 352.648438 C 604.964844 353.324219 611.179688 353.445312 617.402344 353.015625 Z M 617.402344 353.015625 " fill-opacity="1" fill-rule="evenodd"></path><path fill="#be9612" d="M 622.554688 424.382812 C 622.28125 424.1875 621.953125 424.066406 621.570312 424.015625 C 620.617188 420.472656 619.675781 416.914062 618.75 413.347656 C 615.347656 398.011719 616.082031 382.890625 620.957031 367.976562 C 623.441406 362.355469 626.179688 356.878906 629.175781 351.542969 C 631.925781 351.308594 634.660156 350.980469 637.390625 350.5625 C 637.796875 350.535156 638.085938 350.699219 638.25 351.054688 C 625.035156 370.40625 621.316406 391.5 627.089844 414.328125 C 628.011719 418.074219 629.035156 421.796875 630.15625 425.488281 C 630.113281 425.855469 629.910156 426.058594 629.542969 426.097656 C 627.199219 425.546875 624.867188 424.972656 622.554688 424.382812 Z M 622.554688 424.382812 " fill-opacity="1" fill-rule="evenodd"></path><path fill="#fdfdfd" d="M 656.152344 360.617188 C 660.292969 360.402344 663.847656 361.710938 666.820312 364.542969 C 668.65625 367.023438 669.3125 369.800781 668.78125 372.878906 C 668.070312 377.683594 665.332031 380.582031 660.566406 381.585938 C 656.277344 382.417969 652.722656 381.148438 649.898438 377.785156 C 647.300781 374.203125 646.890625 370.359375 648.671875 366.257812 C 650.484375 363.457031 652.976562 361.574219 656.152344 360.617188 Z M 656.152344 360.617188 " fill-opacity="1" fill-rule="evenodd"></path><path fill="#fefefe" d="M 726.539062 377.292969 C 740.8125 377.136719 747.964844 384.167969 748 398.386719 C 746.355469 405.507812 742.144531 410.453125 735.367188 413.222656 C 727.84375 416.292969 720.488281 415.964844 713.296875 412.242188 C 706.140625 407.210938 703.8125 400.46875 706.304688 392.011719 C 708.609375 386.191406 712.65625 382.066406 718.445312 379.625 C 721.078125 378.515625 723.777344 377.734375 726.539062 377.292969 Z M 726.539062 377.292969 " fill-opacity="1" fill-rule="evenodd"></path><path fill="#fdfdfd" d="M 662.285156 395.933594 C 666.730469 395.6875 670.285156 397.320312 672.953125 400.839844 C 675.363281 406.363281 674.175781 410.980469 669.394531 414.695312 C 665.777344 416.734375 662.097656 416.816406 658.359375 414.941406 C 653.117188 411.070312 652.097656 406.289062 655.292969 400.59375 C 657.011719 398.097656 659.339844 396.542969 662.285156 395.933594 Z M 662.285156 395.933594 " fill-opacity="1" fill-rule="evenodd"></path><path fill="#000000" d="M 452.105469 476.867188 C 451.730469 475.609375 451.808594 474.382812 452.347656 473.1875 C 452.976562 472.273438 453.792969 471.582031 454.800781 471.101562 C 464.546875 469.875 474.109375 467.828125 483.496094 464.972656 C 490.0625 461.894531 496.355469 458.378906 502.378906 454.425781 C 508.152344 451.089844 514.28125 448.636719 520.773438 447.070312 C 527.703125 445.320312 534.691406 443.890625 541.742188 442.777344 C 545.0625 442.90625 546.53125 444.625 546.15625 447.925781 C 545.808594 449.175781 545.03125 450.035156 543.828125 450.5 C 537.855469 451.777344 531.886719 453.085938 525.925781 454.425781 C 519.34375 455.753906 513.132812 458.042969 507.285156 461.292969 C 500.976562 465.347656 494.4375 469.027344 487.664062 472.328125 C 481.597656 474.5 475.382812 476.136719 469.027344 477.234375 C 464.671875 478.046875 460.296875 478.742188 455.90625 479.320312 C 454.253906 479.085938 452.988281 478.269531 452.105469 476.867188 Z M 452.105469 476.867188 " fill-opacity="1" fill-rule="evenodd"></path><path fill="#5f6128" d="M 720.652344 450.378906 C 720.015625 451.84375 720.015625 453.316406 720.652344 454.792969 C 720.335938 454.65625 720.132812 454.410156 720.039062 454.058594 C 719.707031 452.828125 719.667969 451.601562 719.917969 450.378906 C 720.164062 450.378906 720.40625 450.378906 720.652344 450.378906 Z M 720.652344 450.378906 " fill-opacity="1" fill-rule="evenodd"></path><path fill="#515322" d="M 452.347656 473.1875 C 451.808594 474.382812 451.730469 475.609375 452.105469 476.867188 C 451.5 475.773438 451.460938 474.628906 451.980469 473.433594 C 452.074219 473.296875 452.199219 473.214844 452.347656 473.1875 Z M 452.347656 473.1875 " fill-opacity="1" fill-rule="evenodd"></path><path fill="#a2664f" d="M 840.582031 476.128906 C 845.121094 475.765625 847.859375 477.808594 848.796875 482.261719 C 849.539062 490.09375 846.878906 496.507812 840.824219 501.515625 C 833.429688 507.167969 825.089844 510.6875 815.808594 512.058594 C 809.234375 513.195312 802.613281 513.644531 795.945312 513.410156 C 774.285156 512.871094 752.703125 511.277344 731.199219 508.625 C 705.605469 505.054688 680.019531 501.453125 654.4375 497.835938 C 641.953125 496.597656 629.445312 496.191406 616.914062 496.609375 C 608.109375 497.144531 599.441406 498.53125 590.914062 500.777344 C 574.972656 505.191406 559.277344 510.34375 543.828125 516.230469 C 525.664062 522.34375 507.269531 527.65625 488.648438 532.171875 C 463.464844 537.257812 438.042969 539.21875 412.375 538.054688 C 409.859375 538.808594 408.835938 540.484375 409.308594 543.082031 C 409.859375 544.695312 410.960938 545.71875 412.617188 546.148438 C 447.589844 548.03125 481.84375 543.945312 515.378906 533.886719 C 522.902344 531.597656 530.421875 529.308594 537.941406 527.019531 C 550.695312 522.605469 563.449219 518.191406 576.199219 513.777344 C 585 510.984375 593.910156 508.613281 602.933594 506.664062 C 610.84375 505.28125 618.816406 504.667969 626.84375 504.824219 C 635.980469 504.839844 645.097656 505.289062 654.191406 506.171875 C 682.9375 510.382812 711.714844 514.390625 740.519531 518.191406 C 755.773438 519.730469 771.0625 520.875 786.378906 521.625 C 786.753906 529.125 783.398438 534.273438 776.324219 537.074219 C 771.097656 539.050781 765.703125 539.707031 760.136719 539.039062 C 752.972656 538.011719 745.863281 536.703125 738.800781 535.113281 C 731.082031 533.039062 723.316406 531.160156 715.503906 529.472656 C 700.125 526.851562 684.632812 525.585938 669.027344 525.671875 C 661.113281 525.660156 653.222656 526.109375 645.359375 527.019531 C 619.234375 531.378906 593.398438 537.019531 567.863281 543.941406 C 553.027344 548.585938 538.148438 553.082031 523.226562 557.429688 C 486.65625 567.246094 449.464844 573.046875 411.636719 574.84375 C 401.746094 575.007812 391.855469 575.007812 381.960938 574.84375 C 375.191406 574.710938 368.488281 573.976562 361.851562 572.636719 C 352.945312 571.15625 346.28125 566.535156 341.863281 558.78125 C 337.734375 551.535156 336.183594 543.769531 337.203125 535.480469 C 338.078125 524.914062 342.371094 516.046875 350.082031 508.871094 C 356.230469 504.207031 363.179688 501.507812 370.925781 500.777344 C 379.101562 499.984375 387.273438 499.984375 395.453125 500.777344 C 404.546875 501.925781 413.621094 503.234375 422.675781 504.703125 C 457.503906 508.480469 492.328125 508.398438 527.152344 504.457031 C 543.113281 503.0625 558.894531 500.527344 574.484375 496.855469 C 590.355469 492.578125 606.296875 488.574219 622.308594 484.835938 C 629.207031 483.453125 636.15625 482.390625 643.152344 481.648438 C 675.398438 479.503906 707.605469 479.914062 739.78125 482.875 C 754.644531 484.589844 769.523438 486.144531 784.417969 487.535156 C 793.953125 488.179688 803.355469 487.363281 812.621094 485.082031 C 818.175781 483.609375 823.738281 482.140625 829.296875 480.667969 C 833.164062 479.347656 836.921875 477.832031 840.582031 476.128906 Z M 840.582031 476.128906 " fill-opacity="1" fill-rule="evenodd"></path><path fill="#7c5d00" d="M 45.480469 484.46875 C 50.578125 484.433594 55.320312 485.703125 59.703125 488.269531 C 67.226562 493.257812 73.152344 499.757812 77.484375 507.769531 C 88.449219 528.679688 91.964844 550.832031 88.03125 574.230469 C 86.488281 583.589844 83.054688 592.175781 77.730469 599.980469 C 73.996094 605.015625 69.128906 608.449219 63.136719 610.28125 C 58.265625 605.613281 54.21875 600.296875 50.996094 594.339844 C 46.425781 585.863281 43.320312 576.871094 41.679688 567.363281 C 38.90625 553.003906 38.171875 538.535156 39.472656 523.953125 C 40.417969 510.601562 42.417969 497.4375 45.480469 484.46875 Z M 45.480469 484.46875 " fill-opacity="1" fill-rule="evenodd"></path><path fill="#a9a605" d="M 216.910156 661.539062 C 235.429688 653.769531 251.65625 642.652344 265.589844 628.1875 C 290.429688 601.8125 311.359375 572.625 328.375 540.632812 C 328.421875 541.253906 328.542969 541.824219 328.742188 542.347656 C 329.34375 554.210938 333.835938 564.304688 342.230469 572.636719 C 347.082031 576.488281 352.558594 579.105469 358.664062 580.484375 C 364.40625 581.738281 370.210938 582.554688 376.078125 582.9375 C 405.335938 584.355469 434.4375 582.804688 463.386719 578.277344 C 484.917969 575.183594 506.171875 570.769531 527.152344 565.035156 C 540.90625 560.941406 554.640625 556.769531 568.351562 552.527344 C 592.996094 545.691406 617.929688 540.132812 643.152344 535.847656 C 651.855469 534.601562 660.605469 533.988281 669.394531 534.007812 C 685.058594 533.898438 700.589844 535.246094 715.992188 538.054688 C 722.546875 539.613281 729.085938 541.246094 735.613281 542.960938 C 733.441406 545.632812 731.355469 548.371094 729.359375 551.175781 C 723.308594 561.324219 716.765625 571.136719 709.738281 580.605469 C 696.023438 597.589844 678.976562 610.058594 658.605469 618.007812 C 623.167969 633.390625 586.625 645.488281 548.976562 654.304688 C 518.386719 661.558594 487.488281 667.113281 456.273438 670.980469 C 399.785156 677.03125 343.296875 677.03125 286.804688 670.980469 C 263.371094 668.574219 240.074219 665.425781 216.910156 661.539062 Z M 216.910156 661.539062 " fill-opacity="1" fill-rule="evenodd"></path><g clip-path="url(#3448db59fc)"><path fill="#19273d" d="M 759.648438 899.675781 C 736.347656 899.675781 713.050781 899.675781 689.75 899.675781 C 688.855469 879.722656 687.832031 859.777344 686.6875 839.835938 C 685.242188 821.230469 683.363281 802.675781 681.046875 784.164062 C 679.476562 781.148438 677.230469 780.492188 674.300781 782.203125 C 673.460938 783.046875 672.96875 784.070312 672.828125 785.269531 C 677.515625 823.265625 680.292969 861.402344 681.167969 899.675781 C 484.558594 899.675781 287.949219 899.675781 91.339844 899.675781 C 92.222656 861.480469 95.003906 823.429688 99.679688 785.511719 C 98.675781 781.664062 96.386719 780.601562 92.8125 782.324219 C 92.265625 782.953125 91.816406 783.648438 91.464844 784.410156 C 89.148438 802.921875 87.265625 821.476562 85.824219 840.082031 C 84.683594 859.941406 83.660156 879.808594 82.757812 899.675781 C 59.296875 899.675781 35.832031 899.675781 12.371094 899.675781 C 11.925781 872.621094 11.804688 845.5625 12.003906 818.5 C 12.195312 791.167969 13.175781 763.859375 14.945312 736.585938 C 15.75 728.410156 17.058594 720.320312 18.871094 712.304688 C 23.015625 693.550781 31.191406 676.875 43.394531 662.273438 C 53.546875 652.117188 64.421875 642.882812 76.011719 634.5625 C 83.550781 648.71875 93.808594 660.535156 106.792969 670 C 121.648438 680.046875 137.507812 688.304688 154.371094 694.769531 C 175.8125 702.566406 197.640625 709.101562 219.851562 714.390625 C 287.707031 729.417969 356.296875 734.242188 425.617188 728.859375 C 455.308594 726.488281 484.652344 721.910156 513.660156 715.125 C 550.714844 706.214844 585.132812 691.421875 616.914062 670.738281 C 631.480469 660.09375 643.867188 647.382812 654.066406 632.601562 C 665.058594 637.621094 675.480469 643.546875 685.335938 650.378906 C 699.6875 660.96875 712.648438 673.109375 724.210938 686.800781 C 744.855469 714.070312 756.222656 744.894531 758.300781 779.257812 C 760.847656 819.378906 761.296875 859.519531 759.648438 899.675781 Z M 759.648438 899.675781 " fill-opacity="1" fill-rule="evenodd"></path></g><path fill="#a9a605" d="M 183.800781 695.875 C 184.058594 695.246094 184.464844 694.71875 185.027344 694.28125 C 190.960938 689.40625 196.316406 683.96875 201.089844 677.972656 C 203.039062 674.808594 205.042969 671.699219 207.097656 668.652344 C 243.851562 674.757812 280.800781 679.214844 317.953125 682.019531 C 362.648438 684.972656 407.28125 684.238281 451.859375 679.8125 C 510.011719 673.324219 566.75 660.570312 622.0625 641.550781 C 628.957031 639 635.824219 636.464844 642.664062 633.949219 C 630.84375 649.453125 616.539062 662.039062 599.746094 671.71875 C 571.449219 688.074219 541.363281 700.007812 509.492188 707.523438 C 488.734375 712.152344 467.808594 715.832031 446.707031 718.558594 C 373.03125 726.503906 299.945312 722.824219 227.457031 707.523438 C 212.769531 704.097656 198.21875 700.214844 183.800781 695.875 Z M 183.800781 695.875 " fill-opacity="1" fill-rule="evenodd"></path><path fill="#838637" d="M 207.097656 668.652344 C 205.042969 671.699219 203.039062 674.808594 201.089844 677.972656 C 196.316406 683.96875 190.960938 689.40625 185.027344 694.28125 C 184.464844 694.71875 184.058594 695.246094 183.800781 695.875 C 160.945312 689.472656 139.363281 680.191406 119.054688 668.039062 C 105.285156 659.789062 94.25 648.792969 85.945312 635.050781 C 86.027344 634.972656 86.109375 634.886719 86.191406 634.808594 C 102.613281 641.875 119.453125 647.804688 136.710938 652.589844 C 159.9375 659.152344 183.398438 664.503906 207.097656 668.652344 Z M 207.097656 668.652344 " fill-opacity="1" fill-rule="evenodd"></path><g clip-path="url(#e5b24f13e3)"><path fill="#000000" d="M 689.75 899.675781 C 686.890625 899.675781 684.03125 899.675781 681.167969 899.675781 C 680.292969 861.402344 677.515625 823.265625 672.828125 785.269531 C 672.96875 784.070312 673.460938 783.046875 674.300781 782.203125 C 677.230469 780.492188 679.476562 781.148438 681.046875 784.164062 C 683.363281 802.675781 685.242188 821.230469 686.6875 839.835938 C 687.832031 859.777344 688.855469 879.722656 689.75 899.675781 Z M 689.75 899.675781 " fill-opacity="1" fill-rule="evenodd"></path></g><g clip-path="url(#556466aa06)"><path fill="#000000" d="M 91.339844 899.675781 C 88.480469 899.675781 85.621094 899.675781 82.757812 899.675781 C 83.660156 879.808594 84.683594 859.941406 85.824219 840.082031 C 87.265625 821.476562 89.148438 802.921875 91.464844 784.410156 C 91.816406 783.648438 92.265625 782.953125 92.8125 782.324219 C 96.386719 780.601562 98.675781 781.664062 99.679688 785.511719 C 95.003906 823.429688 92.222656 861.480469 91.339844 899.675781 Z M 91.339844 899.675781 " fill-opacity="1" fill-rule="evenodd"></path></g></svg>